<svg xmlns="http://www.w3.org/2000/svg" version="1.1" xmlns:xlink="http://www.w3.org/1999/xlink" xmlns:svgjs="http://svgjs.dev/svgjs" width="1000" height="1125" viewBox="0 0 1000 1125"><g transform="matrix(1,0,0,1,0.00011477487282718357,0)"><svg viewBox="0 0 320 360" data-background-color="#ffffff" preserveAspectRatio="xMidYMid meet" height="1125" width="1000" xmlns="http://www.w3.org/2000/svg" xmlns:xlink="http://www.w3.org/1999/xlink"><g id="tight-bounds" transform="matrix(1,0,0,1,-0.00003672795929787753,0)"><svg viewBox="0 0 320 360" height="360" width="320"><g><svg></svg></g><g><svg viewBox="0 0 320 360" height="360" width="320"><g><path transform="translate(-32.1528,-12.1528) scale(3.84303,3.84303)" d="M88.492 50l1.711-2.963c2.946-5.102 1.198-11.626-3.904-14.572l-2.963-1.711v-3.422c0-5.891-4.776-10.667-10.667-10.667h-3.422l-1.711-2.963c-2.946-5.102-9.47-6.85-14.572-3.904l-2.964 1.71-2.963-1.711c-5.102-2.945-11.626-1.197-14.572 3.905l-1.711 2.963h-3.422c-5.891 0-10.667 4.776-10.667 10.667v3.422l-2.963 1.711c-5.102 2.946-6.85 9.47-3.904 14.572l1.71 2.963-1.711 2.963c-2.945 5.102-1.197 11.626 3.905 14.572l2.963 1.711v3.422c0 5.891 4.776 10.667 10.667 10.667h3.422l1.711 2.963c2.946 5.102 9.47 6.85 14.572 3.904l2.963-1.71 2.963 1.711c5.102 2.946 11.626 1.198 14.572-3.904l1.711-2.963h3.422c5.891 0 10.667-4.776 10.667-10.667v-3.422l2.963-1.711c5.102-2.946 6.85-9.47 3.904-14.572zM85.832 33.273c2.252 1.3 3.862 3.399 4.535 5.91 0.673 2.511 0.328 5.135-0.972 7.386l-1.441 2.497-4.618-7.999v-9.236zM73.72 73.72l-15.038 8.682h-17.364l-15.038-8.682-8.682-15.038v-17.364l8.682-15.038 15.038-8.682h17.364l15.038 8.682 8.682 15.038v17.364zM82.401 60.549v8.158l-7.065 4.079zM72.786 75.336l-4.079 7.065h-8.158zM57.065 83.335l-7.065 4.079-7.065-4.079zM39.451 82.401h-8.158l-4.079-7.065zM24.664 72.786l-7.065-4.079v-8.158zM16.665 57.065l-4.079-7.065 4.079-7.065zM17.599 39.451v-8.158l7.065-4.079zM27.214 24.664l4.079-7.065h8.158zM42.935 16.665l7.065-4.079 7.065 4.079zM60.549 17.599h8.158l4.079 7.065zM75.336 27.214l7.065 4.079v8.158zM83.335 42.935l4.079 7.065-4.079 7.065zM72.668 17.599c2.6 0 5.044 1.012 6.883 2.851 1.838 1.838 2.851 4.283 2.851 6.883v2.883l-7.999-4.618-4.618-7.999zM53.43 10.606c2.252-1.3 4.875-1.645 7.386-0.972 2.511 0.673 4.61 2.284 5.91 4.535l1.441 2.497h-9.236l-7.999-4.618zM33.273 14.168c1.3-2.252 3.399-3.862 5.91-4.535 2.511-0.673 5.135-0.328 7.386 0.972l2.497 1.441-7.999 4.618h-9.236zM17.599 27.332c0-2.6 1.012-5.044 2.851-6.883 1.838-1.838 4.283-2.851 6.883-2.851h2.883l-4.618 7.999-7.999 4.618zM10.606 46.57c-1.3-2.252-1.645-4.875-0.972-7.386 0.673-2.511 2.284-4.61 4.535-5.91l2.497-1.441v9.236l-4.618 7.999zM14.168 66.727c-2.252-1.3-3.862-3.399-4.535-5.91-0.673-2.511-0.328-5.135 0.972-7.386l1.441-2.497 4.618 7.999v9.236zM27.332 82.401c-2.6 0-5.044-1.012-6.883-2.851-1.838-1.838-2.851-4.283-2.851-6.883v-2.883l7.999 4.618 4.618 7.999zM46.57 89.394c-2.252 1.3-4.875 1.645-7.386 0.972-2.511-0.673-4.61-2.284-5.91-4.535l-1.441-2.497h9.236l7.999 4.618zM66.727 85.832c-1.3 2.252-3.399 3.862-5.91 4.535-2.511 0.673-5.135 0.328-7.386-0.972l-2.497-1.441 7.999-4.618h9.236zM82.401 72.668c0 2.6-1.012 5.044-2.851 6.883-1.838 1.838-4.283 2.851-6.883 2.851h-2.883l4.618-7.999 7.999-4.618zM90.367 60.816c-0.673 2.511-2.284 4.61-4.535 5.91l-2.497 1.441v-9.236l4.618-7.999 1.441 2.497c1.3 2.253 1.646 4.876 0.973 7.387z" fill="#0074d9" fill-rule="nonzero" stroke="none" stroke-width="1" stroke-linecap="butt" stroke-linejoin="miter" stroke-miterlimit="10" stroke-dasharray="" stroke-dashoffset="0" font-family="none" font-weight="none" font-size="none" text-anchor="none" style="mix-blend-mode: normal" data-fill-palette-color="tertiary"></path></g><g transform="matrix(1,0,0,1,64,162.08635792204845)"><svg viewBox="0 0 192 35.82728415590309" height="35.82728415590309" width="192"><g><svg viewBox="0 0 192 35.82728415590309" height="35.82728415590309" width="192"><g><svg viewBox="0 0 262.35982084201015 48.95645756457564" height="35.82728415590309" width="192"><g transform="matrix(1,0,0,1,70.35982084201015,15.622140221402214)"><svg viewBox="0 0 192 17.712177121771216" height="17.712177121771216" width="192"><g id="textblocktransform"><svg viewBox="0 0 192 17.712177121771216" height="17.712177121771216" width="192" id="textblock"><g><svg viewBox="0 0 192 17.712177121771216" height="17.712177121771216" width="192"><g transform="matrix(1,0,0,1,0,0)"><svg width="192" viewBox="2 -38.5 445.4099999998999 42" height="17.712177121771216" data-palette-color="#0074d9"><path d="M6 0L6 0Q5.55 0 5.28-0.3 5-0.6 5-1L5-1 5-34Q5-34.4 5.3-34.7 5.6-35 6-35L6-35 24.85-35Q25.25-35 25.55-34.7 25.85-34.4 25.85-34L25.85-34Q25.85-33.55 25.55-33.27 25.25-33 24.85-33L24.85-33 6.85-33 7-33.2 7-18.8 6.8-19.2 22.6-19.2Q23-19.2 23.3-18.9 23.6-18.6 23.6-18.2L23.6-18.2Q23.6-17.75 23.3-17.48 23-17.2 22.6-17.2L22.6-17.2 6.7-17.2 7-17.6 7-1Q7-0.6 6.73-0.3 6.45 0 6 0ZM42.35-32.85L43.1-32.45 30.45-0.65Q30.35-0.35 30.1-0.18 29.85 0 29.55 0L29.55 0Q29.05 0 28.8-0.25 28.55-0.5 28.5-0.85L28.5-0.85Q28.45-1.05 28.55-1.35L28.55-1.35 42-34.45Q42.15-34.85 42.37-34.98 42.6-35.1 42.95-35.1L42.95-35.1Q43.35-35.1 43.6-34.93 43.85-34.75 43.95-34.45L43.95-34.45 57.4-1.35Q57.45-1.2 57.45-0.95L57.45-0.95Q57.45-0.5 57.15-0.25 56.85 0 56.4 0L56.4 0Q56.05 0 55.77-0.18 55.5-0.35 55.4-0.65L55.4-0.65 42.35-32.85ZM51.25-10.85L33.85-10.85 34.55-12.85 50.75-12.85 51.25-10.85ZM84.84-35L84.84-35Q85.34-35 85.59-34.75 85.84-34.5 85.84-34.1L85.84-34.1Q85.84-33.9 85.75-33.6L85.75-33.6 72.05-0.65Q71.9-0.35 71.65-0.18 71.4 0 71.09 0L71.09 0Q70.8 0 70.52-0.18 70.25-0.35 70.15-0.65L70.15-0.65 56.55-33.45Q56.5-33.55 56.45-33.7 56.4-33.85 56.4-34.05L56.4-34.05Q56.4-34.45 56.7-34.73 57-35 57.35-35L57.35-35Q58.1-35 58.45-34.2L58.45-34.2 71.45-2.9 70.84-2.95 83.9-34.35Q84.25-35 84.84-35ZM122.94-17.5L122.94-17.5Q122.94-13.5 121.72-10.2 120.49-6.9 118.24-4.5 115.99-2.1 112.94-0.8 109.89 0.5 106.24 0.5L106.24 0.5Q102.59 0.5 99.54-0.8 96.49-2.1 94.24-4.5 91.99-6.9 90.77-10.2 89.54-13.5 89.54-17.5L89.54-17.5Q89.54-21.5 90.77-24.8 91.99-28.1 94.24-30.5 96.49-32.9 99.54-34.2 102.59-35.5 106.24-35.5L106.24-35.5Q109.89-35.5 112.94-34.2 115.99-32.9 118.24-30.5 120.49-28.1 121.72-24.8 122.94-21.5 122.94-17.5ZM120.84-17.5L120.84-17.5Q120.84-22.3 118.97-25.9 117.09-29.5 113.82-31.5 110.54-33.5 106.24-33.5L106.24-33.5Q101.99-33.5 98.69-31.5 95.39-29.5 93.52-25.9 91.64-22.3 91.64-17.5L91.64-17.5Q91.64-12.7 93.52-9.1 95.39-5.5 98.69-3.5 101.99-1.5 106.24-1.5L106.24-1.5Q110.54-1.5 113.82-3.5 117.09-5.5 118.97-9.1 120.84-12.7 120.84-17.5ZM155.19-35L155.19-35Q155.64-35 155.92-34.7 156.19-34.4 156.19-34L156.19-34 156.19-12.4Q156.19-8.85 154.44-5.93 152.69-3 149.79-1.25 146.89 0.5 143.34 0.5L143.34 0.5Q139.79 0.5 136.87-1.25 133.94-3 132.19-5.93 130.44-8.85 130.44-12.4L130.44-12.4 130.44-34Q130.44-34.4 130.72-34.7 130.99-35 131.49-35L131.49-35Q131.94-35 132.24-34.7 132.54-34.4 132.54-34L132.54-34 132.54-12.4Q132.54-9.4 133.99-6.93 135.44-4.45 137.92-2.98 140.39-1.5 143.34-1.5L143.34-1.5Q146.34-1.5 148.79-2.98 151.24-4.45 152.72-6.93 154.19-9.4 154.19-12.4L154.19-12.4 154.19-34Q154.19-34.4 154.47-34.7 154.74-35 155.19-35ZM167.24 0L167.24 0Q166.74 0 166.46-0.3 166.19-0.6 166.19-1L166.19-1 166.19-34Q166.19-34.4 166.49-34.7 166.79-35 167.19-35L167.19-35 180.39-35Q183.34-35 185.56-33.83 187.79-32.65 189.04-30.6 190.29-28.55 190.29-25.95L190.29-25.95Q190.29-23.65 189.46-21.8 188.64-19.95 187.16-18.73 185.69-17.5 183.79-16.95L183.79-16.95 181.49-17.35Q183.49-17.35 185.29-16.32 187.09-15.3 188.24-13.33 189.39-11.35 189.39-8.5L189.39-8.5Q189.39-6.05 189.61-4.78 189.84-3.5 190.21-2.9 190.59-2.3 191.09-1.95L191.09-1.95Q191.39-1.75 191.54-1.45 191.69-1.15 191.59-0.75L191.59-0.75Q191.49-0.45 191.26-0.28 191.04-0.1 190.79-0.05 190.54 0 190.24-0.15L190.24-0.15Q189.54-0.55 188.86-1.35 188.19-2.15 187.74-3.8 187.29-5.45 187.29-8.5L187.29-8.5Q187.29-10.85 186.56-12.25 185.84-13.65 184.71-14.4 183.59-15.15 182.31-15.4 181.04-15.65 179.99-15.65L179.99-15.65 167.84-15.65 168.29-16.25 168.29-1Q168.29-0.6 167.99-0.3 167.69 0 167.24 0ZM168.29-17.1L167.79-17.65 180.64-17.65Q182.64-17.85 184.34-18.85 186.04-19.85 187.11-21.65 188.19-23.45 188.19-25.9L188.19-25.9Q188.19-28.95 186.01-30.98 183.84-33 180.14-33L180.14-33 168.04-33 168.29-33.35 168.29-17.1ZM201.48-33.95L201.48-1.05Q201.44-0.6 201.13-0.3 200.83 0 200.44 0L200.44 0Q199.94 0 199.66-0.3 199.38-0.6 199.38-1.05L199.38-1.05 199.38-33.95Q199.38-34.4 199.69-34.7 199.98-35 200.44-35L200.44-35Q200.88-35 201.19-34.7 201.48-34.4 201.48-33.95L201.48-33.95ZM221.38 0L221.38 0Q220.93 0 220.66-0.3 220.38-0.6 220.38-1L220.38-1 220.38-33.8 222.38-33.8 222.38-1Q222.38-0.6 222.08-0.3 221.78 0 221.38 0ZM233.53-33.1L209.23-33.1Q208.83-33.1 208.53-33.38 208.23-33.65 208.23-34.05L208.23-34.05Q208.23-34.45 208.53-34.73 208.83-35 209.23-35L209.23-35 233.53-35Q233.93-35 234.23-34.73 234.53-34.45 234.53-34.05L234.53-34.05Q234.53-33.6 234.23-33.35 233.93-33.1 233.53-33.1L233.53-33.1ZM242.28-35L242.28-35 261.13-35Q261.53-35 261.83-34.7 262.13-34.4 262.13-34L262.13-34Q262.13-33.55 261.83-33.27 261.53-33 261.13-33L261.13-33 242.88-33 243.38-33.85 243.38-18.35 242.78-19.05 258.88-19.05Q259.28-19.05 259.58-18.75 259.88-18.45 259.88-18.05L259.88-18.05Q259.88-17.6 259.58-17.32 259.28-17.05 258.88-17.05L258.88-17.05 242.88-17.05 243.38-17.6 243.38-1.75 243.18-2 261.13-2Q261.53-2 261.83-1.7 262.13-1.4 262.13-1L262.13-1Q262.13-0.55 261.83-0.28 261.53 0 261.13 0L261.13 0 242.28 0Q241.88 0 241.58-0.3 241.28-0.6 241.28-1L241.28-1 241.28-34Q241.28-34.4 241.58-34.7 241.88-35 242.28-35ZM309.02-32.1L309.02-32.1Q309.43-31.8 309.48-31.43 309.52-31.05 309.27-30.65L309.27-30.65Q309.02-30.3 308.65-30.28 308.27-30.25 307.93-30.45L307.93-30.45Q305.82-31.9 303.35-32.75 300.88-33.6 298.07-33.6L298.07-33.6Q294.88-33.6 292.1-32.43 289.32-31.25 287.23-29.1 285.13-26.95 283.93-24 282.73-21.05 282.73-17.5L282.73-17.5Q282.73-13.95 283.93-11 285.13-8.05 287.23-5.9 289.32-3.75 292.1-2.58 294.88-1.4 298.07-1.4L298.07-1.4Q300.88-1.4 303.32-2.25 305.77-3.1 307.88-4.5L307.88-4.5Q308.23-4.75 308.63-4.7 309.02-4.65 309.27-4.3L309.27-4.3Q309.52-3.95 309.48-3.55 309.43-3.15 309.07-2.9L309.07-2.9Q307.88-2.05 306.05-1.25 304.23-0.45 302.18 0.03 300.13 0.5 298.07 0.5L298.07 0.5Q294.48 0.5 291.32-0.85 288.18-2.2 285.77-4.63 283.38-7.05 282-10.33 280.63-13.6 280.63-17.5L280.63-17.5Q280.63-21.4 282-24.68 283.38-27.95 285.77-30.38 288.18-32.8 291.32-34.15 294.48-35.5 298.07-35.5L298.07-35.5Q301.13-35.5 303.95-34.6 306.77-33.7 309.02-32.1ZM347.12-17.5L347.12-17.5Q347.12-13.5 345.9-10.2 344.67-6.9 342.42-4.5 340.17-2.1 337.12-0.8 334.07 0.5 330.42 0.5L330.42 0.5Q326.77 0.5 323.72-0.8 320.67-2.1 318.42-4.5 316.17-6.9 314.95-10.2 313.72-13.5 313.72-17.5L313.72-17.5Q313.72-21.5 314.95-24.8 316.17-28.1 318.42-30.5 320.67-32.9 323.72-34.2 326.77-35.5 330.42-35.5L330.42-35.5Q334.07-35.5 337.12-34.2 340.17-32.9 342.42-30.5 344.67-28.1 345.9-24.8 347.12-21.5 347.12-17.5ZM345.02-17.5L345.02-17.5Q345.02-22.3 343.15-25.9 341.27-29.5 338-31.5 334.72-33.5 330.42-33.5L330.42-33.5Q326.17-33.5 322.87-31.5 319.57-29.5 317.7-25.9 315.82-22.3 315.82-17.5L315.82-17.5Q315.82-12.7 317.7-9.1 319.57-5.5 322.87-3.5 326.17-1.5 330.42-1.5L330.42-1.5Q334.72-1.5 338-3.5 341.27-5.5 343.15-9.1 345.02-12.7 345.02-17.5ZM355.62-35L368.62-35Q372.37-35 375.12-33.58 377.87-32.15 379.65-29.68 381.42-27.2 382.27-24.05 383.12-20.9 383.12-17.5L383.12-17.5Q383.12-12.7 381.6-8.72 380.07-4.75 376.87-2.38 373.67 0 368.62 0L368.62 0 355.62 0Q355.22 0 354.92-0.3 354.62-0.6 354.62-1L354.62-1 354.62-34Q354.62-34.4 354.92-34.7 355.22-35 355.62-35L355.62-35ZM356.42-2L368.12-2Q372.72-2 375.55-4.08 378.37-6.15 379.7-9.68 381.02-13.2 381.02-17.5L381.02-17.5Q381.02-20.55 380.3-23.35 379.57-26.15 378.02-28.33 376.47-30.5 374.02-31.75 371.57-33 368.12-33L368.12-33 356.42-33 356.72-33.4 356.72-1.55 356.42-2ZM391.62-35L391.62-35 410.47-35Q410.87-35 411.17-34.7 411.47-34.4 411.47-34L411.47-34Q411.47-33.55 411.17-33.27 410.87-33 410.47-33L410.47-33 392.22-33 392.72-33.85 392.72-18.35 392.12-19.05 408.22-19.05Q408.62-19.05 408.92-18.75 409.22-18.45 409.22-18.05L409.22-18.05Q409.22-17.6 408.92-17.32 408.62-17.05 408.22-17.05L408.22-17.05 392.22-17.05 392.72-17.6 392.72-1.75 392.52-2 410.47-2Q410.87-2 411.17-1.7 411.47-1.4 411.47-1L411.47-1Q411.47-0.55 411.17-0.28 410.87 0 410.47 0L410.47 0 391.62 0Q391.22 0 390.92-0.3 390.62-0.6 390.62-1L390.62-1 390.62-34Q390.62-34.4 390.92-34.7 391.22-35 391.62-35ZM420.02 0L420.02 0Q419.52 0 419.24-0.3 418.97-0.6 418.97-1L418.97-1 418.97-34Q418.97-34.4 419.27-34.7 419.57-35 419.97-35L419.97-35 433.17-35Q436.12-35 438.34-33.83 440.57-32.65 441.82-30.6 443.07-28.55 443.07-25.95L443.07-25.95Q443.07-23.65 442.24-21.8 441.42-19.95 439.94-18.73 438.47-17.5 436.57-16.95L436.57-16.95 434.27-17.35Q436.27-17.35 438.07-16.32 439.87-15.3 441.02-13.33 442.17-11.35 442.17-8.5L442.17-8.5Q442.17-6.05 442.39-4.78 442.62-3.5 442.99-2.9 443.37-2.3 443.87-1.95L443.87-1.95Q444.17-1.75 444.32-1.45 444.47-1.15 444.37-0.75L444.37-0.75Q444.27-0.45 444.04-0.28 443.82-0.1 443.57-0.05 443.32 0 443.02-0.15L443.02-0.15Q442.32-0.55 441.64-1.35 440.97-2.15 440.52-3.8 440.07-5.45 440.07-8.5L440.07-8.5Q440.07-10.85 439.34-12.25 438.62-13.65 437.49-14.4 436.37-15.15 435.09-15.4 433.82-15.65 432.77-15.65L432.77-15.65 420.62-15.65 421.07-16.25 421.07-1Q421.07-0.6 420.77-0.3 420.47 0 420.02 0ZM421.07-17.1L420.57-17.65 433.42-17.65Q435.42-17.85 437.12-18.85 438.82-19.85 439.89-21.65 440.97-23.45 440.97-25.9L440.97-25.9Q440.97-28.95 438.79-30.98 436.62-33 432.92-33L432.92-33 420.82-33 421.07-33.35 421.07-17.1Z" opacity="1" transform="matrix(1,0,0,1,0,0)" fill="#0074d9" class="wordmark-text-0" data-fill-palette-color="primary" id="text-0"></path></svg></g></svg></g></svg></g></svg></g><g><svg viewBox="0 0 68.09038809968273 48.95645756457564" height="48.95645756457564" width="68.09038809968273"><g><svg xmlns="http://www.w3.org/2000/svg" xmlns:xlink="http://www.w3.org/1999/xlink" version="1.1" x="0" y="0" viewBox="9.666 21.00033765356684 80.668 57.999662346433155" enable-background="new 0 0 100 100" xml:space="preserve" height="48.95645756457564" width="68.09038809968273" class="icon-icon-0" data-fill-palette-color="accent" id="icon-0"><path d="M32.951 28.716c-0.781-0.781-2.047-0.781-2.828 0l-19.871 19.87C9.877 48.961 9.666 49.47 9.666 50s0.211 1.039 0.586 1.414l19.871 19.87c0.391 0.391 0.902 0.586 1.414 0.586s1.023-0.195 1.414-0.586c0.781-0.781 0.781-2.047 0-2.828L14.494 50l18.457-18.456C33.732 30.763 33.732 29.497 32.951 28.716zM89.748 48.586l-19.871-19.87c-0.781-0.781-2.047-0.781-2.828 0s-0.781 2.047 0 2.828L85.506 50 67.049 68.456c-0.781 0.781-0.781 2.047 0 2.828 0.391 0.391 0.902 0.586 1.414 0.586s1.023-0.195 1.414-0.586l19.871-19.87c0.375-0.375 0.586-0.884 0.586-1.414S90.123 48.961 89.748 48.586zM63.208 21.182c-1.002-0.458-2.191-0.021-2.651 0.985l-24.75 54c-0.46 1.004-0.02 2.19 0.985 2.651C37.062 78.941 37.345 79 37.624 79c0.758 0 1.482-0.433 1.819-1.167l24.75-54C64.653 22.829 64.213 21.643 63.208 21.182z" fill="#fce44d" data-fill-palette-color="accent"></path></svg></g></svg></g></svg></g></svg></g></svg></g></svg></g><defs></defs></svg><rect width="320" height="360" fill="none" stroke="none" visibility="hidden"></rect></g></svg></g></svg>